<svg xmlns="http://www.w3.org/2000/svg" xmlns:xlink="http://www.w3.org/1999/xlink" width="500" zoomAndPan="magnify" viewBox="0 0 375 374.999991" height="500" preserveAspectRatio="xMidYMid meet" version="1.0"><defs><clipPath id="d229d201a1"><path d="M 126 57.875 L 205 57.875 L 205 203 L 126 203 Z M 126 57.875 " clip-rule="nonzero"/></clipPath></defs><path fill="#333333" d="M 132.414062 158.929688 C 132.414062 158.929688 129.058594 178.261719 165.5 178.664062 C 168.601562 178.695312 171.410156 180.566406 172.597656 183.433594 C 173.523438 185.675781 173.351562 188.195312 172.128906 190.289062 C 169.332031 195.082031 163.289062 204.078125 168.015625 213.03125 C 171.90625 220.398438 180.96875 222.960938 188.378906 221.339844 C 188.378906 221.339844 173.820312 200.859375 191.039062 167.09375 C 208.257812 133.324219 125.773438 133.839844 111.730469 77.621094 C 111.730469 77.621094 94.550781 126.765625 169.425781 151.042969 C 169.425781 151.042969 140.644531 151.421875 116.03125 122.414062 C 116.03125 122.414062 109.886719 153.414062 164.394531 165.023438 C 164.394531 165.023438 145.578125 166.25 132.414062 158.929688 " fill-opacity="1" fill-rule="nonzero"/><g clip-path="url(#d229d201a1)"><path fill="#333333" d="M 150.9375 120.023438 C 156.160156 123.261719 161.433594 126.160156 166.40625 128.886719 C 185.59375 139.417969 203.714844 149.367188 193.921875 168.566406 C 186.832031 182.476562 185.351562 193.878906 185.945312 202.359375 C 187.085938 192.839844 190.964844 180.855469 200.777344 167.453125 C 225.0625 134.285156 136.640625 120.519531 131.335938 57.882812 C 131.335938 57.882812 129.542969 61.191406 128.191406 66.777344 C 123.175781 87.476562 132.851562 108.800781 150.9375 120.023438 " fill-opacity="1" fill-rule="nonzero"/></g><path fill="#333333" d="M 271.277344 284.355469 C 262.117188 266.730469 238.964844 280.484375 230.171875 259.34375 C 229.890625 258.667969 229.625 257.972656 229.363281 257.269531 C 229.050781 256.425781 228.199219 255.914062 227.308594 256.027344 L 220.359375 256.910156 C 218.960938 257.085938 217.558594 256.238281 217.246094 254.859375 C 216.882812 253.273438 217.96875 251.761719 219.535156 251.566406 L 224.882812 250.886719 C 226.054688 250.738281 226.828125 249.585938 226.507812 248.453125 C 226.464844 248.308594 226.425781 248.164062 226.386719 248.019531 C 226.128906 247.09375 225.234375 246.488281 224.277344 246.609375 L 216.734375 247.5625 C 215.335938 247.742188 213.929688 246.894531 213.617188 245.511719 C 213.253906 243.929688 214.339844 242.421875 215.90625 242.222656 L 222.457031 241.394531 C 223.601562 241.25 224.363281 240.144531 224.09375 239.019531 C 224.089844 239.007812 224.089844 238.996094 224.082031 238.980469 C 223.855469 238.019531 222.941406 237.386719 221.960938 237.507812 L 213.289062 238.605469 C 211.890625 238.785156 210.488281 237.9375 210.171875 236.558594 C 209.8125 234.972656 210.894531 233.460938 212.460938 233.265625 L 220.300781 232.273438 C 221.445312 232.128906 222.210938 231.023438 221.945312 229.902344 C 221.894531 229.707031 221.851562 229.519531 221.804688 229.324219 C 221.574219 228.363281 220.65625 227.734375 219.679688 227.859375 L 209.109375 229.199219 C 207.710938 229.375 206.308594 228.527344 205.992188 227.152344 C 205.628906 225.570312 206.710938 224.058594 208.28125 223.859375 L 217.804688 222.652344 C 218.988281 222.5 219.75 221.324219 219.417969 220.175781 C 217.578125 213.816406 215.4375 208.308594 212.503906 204.667969 C 210.023438 201.585938 205.671875 200.835938 202.25 202.8125 C 198.511719 204.96875 192.558594 207.714844 186.636719 207.652344 C 188.03125 214.964844 190.761719 219.09375 191.023438 219.472656 L 193.859375 223.460938 L 189.070312 224.507812 C 188.832031 224.5625 188.578125 224.589844 188.335938 224.632812 C 187.914062 224.710938 187.496094 224.796875 187.058594 224.851562 C 186.414062 224.933594 185.746094 224.949219 185.082031 224.980469 C 185.085938 224.976562 185.089844 224.976562 185.09375 224.980469 C 177.726562 225.316406 169.316406 222.4375 165.152344 214.546875 C 159.886719 204.566406 165.660156 194.84375 168.761719 189.621094 L 169.195312 188.882812 C 168.707031 186.90625 167.480469 185.171875 165.792969 184.019531 C 162.816406 181.988281 158.867188 182.035156 155.980469 184.199219 C 149.167969 189.296875 137.703125 199.089844 137.3125 207.507812 C 145.847656 223.457031 162 226.863281 184.691406 261.019531 C 209.882812 298.941406 251.25 296.96875 251.25 296.96875 C 197.914062 307.539062 182.007812 257.003906 158.851562 239.515625 C 142.984375 227.53125 136.835938 216.617188 134.535156 210.933594 C 130.589844 215.433594 125.730469 226.015625 145.535156 241.742188 C 172.445312 263.117188 182.285156 296.855469 210.917969 307.113281 C 239.550781 317.375 280.441406 301.984375 271.277344 284.355469 " fill-opacity="1" fill-rule="nonzero"/></svg>